<svg xmlns="http://www.w3.org/2000/svg" xmlns:xlink="http://www.w3.org/1999/xlink" width="300" zoomAndPan="magnify" viewBox="0 0 224.87999 112.499997" height="150" preserveAspectRatio="xMidYMid meet" version="1.0"><defs><g/><clipPath id="6e554e3243"><path d="M 42 30 L 75 30 L 75 74 L 42 74 Z M 42 30 " clip-rule="nonzero"/></clipPath><clipPath id="116193521e"><path d="M 63.558594 27.527344 L 77.640625 35.816406 L 53.421875 76.964844 L 39.339844 68.675781 Z M 63.558594 27.527344 " clip-rule="nonzero"/></clipPath><clipPath id="cf0fee50c0"><path d="M 70.601562 31.671875 C 72.46875 32.773438 73.820312 34.570312 74.367188 36.667969 C 74.910156 38.765625 74.597656 40.992188 73.496094 42.859375 L 57.578125 69.90625 C 56.476562 71.773438 54.679688 73.125 52.582031 73.671875 C 50.484375 74.214844 48.257812 73.902344 46.390625 72.800781 C 44.523438 71.703125 43.167969 69.90625 42.625 67.808594 C 42.082031 65.710938 42.394531 63.484375 43.496094 61.617188 L 59.414062 34.570312 C 60.515625 32.703125 62.308594 31.347656 64.40625 30.804688 C 66.503906 30.261719 68.734375 30.574219 70.601562 31.671875 Z M 70.601562 31.671875 " clip-rule="nonzero"/></clipPath><clipPath id="3e2868ad42"><path d="M 0.0117188 0.105469 L 32.988281 0.105469 L 32.988281 44 L 0.0117188 44 Z M 0.0117188 0.105469 " clip-rule="nonzero"/></clipPath><clipPath id="6f7091f085"><path d="M 21.558594 -2.472656 L 35.640625 5.816406 L 11.421875 46.964844 L -2.660156 38.675781 Z M 21.558594 -2.472656 " clip-rule="nonzero"/></clipPath><clipPath id="b3da21343f"><path d="M 28.601562 1.671875 C 30.46875 2.773438 31.820312 4.570312 32.367188 6.667969 C 32.910156 8.765625 32.597656 10.992188 31.496094 12.859375 L 15.578125 39.90625 C 14.476562 41.773438 12.679688 43.125 10.582031 43.671875 C 8.484375 44.214844 6.257812 43.902344 4.390625 42.800781 C 2.523438 41.703125 1.167969 39.90625 0.625 37.808594 C 0.0820312 35.710938 0.394531 33.484375 1.496094 31.617188 L 17.414062 4.570312 C 18.515625 2.703125 20.308594 1.347656 22.40625 0.804688 C 24.503906 0.261719 26.734375 0.574219 28.601562 1.671875 Z M 28.601562 1.671875 " clip-rule="nonzero"/></clipPath><clipPath id="2567d35b2d"><rect x="0" width="33" y="0" height="44"/></clipPath><clipPath id="509bdb749f"><path d="M 25.824219 30.503906 L 42.660156 30.503906 L 42.660156 47.335938 L 25.824219 47.335938 Z M 25.824219 30.503906 " clip-rule="nonzero"/></clipPath><clipPath id="32b6b369ff"><path d="M 34.242188 30.503906 C 29.59375 30.503906 25.824219 34.269531 25.824219 38.921875 C 25.824219 43.570312 29.59375 47.335938 34.242188 47.335938 C 38.890625 47.335938 42.660156 43.570312 42.660156 38.921875 C 42.660156 34.269531 38.890625 30.503906 34.242188 30.503906 Z M 34.242188 30.503906 " clip-rule="nonzero"/></clipPath><clipPath id="368a1fc8b5"><path d="M 0.824219 0.503906 L 17.660156 0.503906 L 17.660156 17.335938 L 0.824219 17.335938 Z M 0.824219 0.503906 " clip-rule="nonzero"/></clipPath><clipPath id="ce6421ce5a"><path d="M 9.242188 0.503906 C 4.59375 0.503906 0.824219 4.269531 0.824219 8.921875 C 0.824219 13.570312 4.59375 17.335938 9.242188 17.335938 C 13.890625 17.335938 17.660156 13.570312 17.660156 8.921875 C 17.660156 4.269531 13.890625 0.503906 9.242188 0.503906 Z M 9.242188 0.503906 " clip-rule="nonzero"/></clipPath><clipPath id="05488bd767"><rect x="0" width="18" y="0" height="18"/></clipPath><clipPath id="a01873ba04"><path d="M 28 8 L 54 8 L 54 40.980469 L 28 40.980469 Z M 28 8 " clip-rule="nonzero"/></clipPath><clipPath id="b2f2d32dbd"><rect x="0" width="110" y="0" height="41"/></clipPath></defs><g clip-path="url(#6e554e3243)"><g clip-path="url(#116193521e)"><g clip-path="url(#cf0fee50c0)"><g transform="matrix(1, 0, 0, 1, 42, 30)"><g clip-path="url(#2567d35b2d)"><g clip-path="url(#3e2868ad42)"><g clip-path="url(#6f7091f085)"><g clip-path="url(#b3da21343f)"><path fill="#a3e635" d="M 21.558594 -2.472656 L 35.640625 5.816406 L 11.421875 46.964844 L -2.660156 38.675781 Z M 21.558594 -2.472656 " fill-opacity="1" fill-rule="nonzero"/></g></g></g></g></g></g></g></g><g clip-path="url(#509bdb749f)"><g clip-path="url(#32b6b369ff)"><g transform="matrix(1, 0, 0, 1, 25, 30)"><g clip-path="url(#05488bd767)"><g clip-path="url(#368a1fc8b5)"><g clip-path="url(#ce6421ce5a)"><path fill="#a3e635" d="M 0.824219 0.503906 L 17.660156 0.503906 L 17.660156 17.335938 L 0.824219 17.335938 Z M 0.824219 0.503906 " fill-opacity="1" fill-rule="nonzero"/></g></g></g></g></g></g><g transform="matrix(1, 0, 0, 1, 85, 35)"><g clip-path="url(#b2f2d32dbd)"><g fill="#ffffff" fill-opacity="1"><g transform="translate(1.214412, 32.855202)"><g><path d="M 8.40625 0 L 4.296875 0 L 4.296875 -31.5625 L 8.40625 -31.5625 Z M 8.40625 0 "/></g></g></g><g fill="#ffffff" fill-opacity="1"><g transform="translate(11.150821, 32.855202)"><g><path d="M 17.34375 0 L 12.96875 0 C 12.070312 0 11.179688 -0.113281 10.296875 -0.34375 C 9.421875 -0.582031 8.625 -1.007812 7.90625 -1.625 C 7.1875 -2.238281 6.609375 -3.125 6.171875 -4.28125 C 5.742188 -5.4375 5.53125 -6.929688 5.53125 -8.765625 L 5.53125 -20.171875 L 0.25 -20.171875 L 0.25 -23.671875 L 5.53125 -23.671875 L 5.53125 -30.703125 L 9.515625 -30.734375 L 9.515625 -23.671875 L 17.34375 -23.671875 L 17.34375 -20.171875 L 9.515625 -20.171875 L 9.515625 -8.59375 C 9.515625 -7.488281 9.632812 -6.59375 9.875 -5.90625 C 10.113281 -5.21875 10.4375 -4.691406 10.84375 -4.328125 C 11.257812 -3.960938 11.71875 -3.710938 12.21875 -3.578125 C 12.71875 -3.453125 13.234375 -3.390625 13.765625 -3.390625 L 17.34375 -3.390625 Z M 17.34375 0 "/></g></g></g><g clip-path="url(#a01873ba04)"><g fill="#ffffff" fill-opacity="1"><g transform="translate(27.051038, 32.855202)"><g><path d="M 26.453125 8.078125 L 22.4375 8.078125 L 22.4375 -2.765625 L 22.515625 -4.9375 C 22.046875 -3.90625 21.378906 -2.960938 20.515625 -2.109375 C 19.648438 -1.253906 18.617188 -0.578125 17.421875 -0.078125 C 16.234375 0.421875 14.921875 0.671875 13.484375 0.671875 C 11.816406 0.671875 10.273438 0.351562 8.859375 -0.28125 C 7.441406 -0.925781 6.207031 -1.820312 5.15625 -2.96875 C 4.101562 -4.113281 3.285156 -5.441406 2.703125 -6.953125 C 2.117188 -8.472656 1.828125 -10.101562 1.828125 -11.84375 C 1.828125 -13.570312 2.113281 -15.191406 2.6875 -16.703125 C 3.257812 -18.210938 4.066406 -19.535156 5.109375 -20.671875 C 6.160156 -21.816406 7.394531 -22.710938 8.8125 -23.359375 C 10.238281 -24.015625 11.800781 -24.34375 13.5 -24.34375 C 14.988281 -24.34375 16.328125 -24.066406 17.515625 -23.515625 C 18.710938 -22.972656 19.742188 -22.265625 20.609375 -21.390625 C 21.472656 -20.515625 22.144531 -19.585938 22.625 -18.609375 L 22.625 -23.671875 L 26.453125 -23.671875 Z M 14.140625 -3.046875 C 15.296875 -3.046875 16.378906 -3.269531 17.390625 -3.71875 C 18.410156 -4.164062 19.300781 -4.785156 20.0625 -5.578125 C 20.832031 -6.378906 21.429688 -7.3125 21.859375 -8.375 C 22.296875 -9.445312 22.515625 -10.601562 22.515625 -11.84375 C 22.515625 -13.070312 22.296875 -14.21875 21.859375 -15.28125 C 21.429688 -16.34375 20.832031 -17.269531 20.0625 -18.0625 C 19.300781 -18.863281 18.410156 -19.488281 17.390625 -19.9375 C 16.378906 -20.382812 15.296875 -20.609375 14.140625 -20.609375 C 12.972656 -20.609375 11.882812 -20.382812 10.875 -19.9375 C 9.863281 -19.5 8.976562 -18.882812 8.21875 -18.09375 C 7.457031 -17.3125 6.863281 -16.382812 6.4375 -15.3125 C 6.007812 -14.25 5.796875 -13.09375 5.796875 -11.84375 C 5.796875 -10.601562 6.003906 -9.445312 6.421875 -8.375 C 6.847656 -7.3125 7.4375 -6.378906 8.1875 -5.578125 C 8.9375 -4.785156 9.816406 -4.164062 10.828125 -3.71875 C 11.835938 -3.269531 12.941406 -3.046875 14.140625 -3.046875 Z M 14.140625 -3.046875 "/></g></g></g></g><g fill="#ffffff" fill-opacity="1"><g transform="translate(54.5772, 32.855202)"><g><path d="M 13.28125 0.671875 C 11.65625 0.671875 10.148438 0.351562 8.765625 -0.28125 C 7.378906 -0.925781 6.164062 -1.820312 5.125 -2.96875 C 4.09375 -4.113281 3.285156 -5.441406 2.703125 -6.953125 C 2.117188 -8.472656 1.828125 -10.101562 1.828125 -11.84375 C 1.828125 -13.570312 2.117188 -15.191406 2.703125 -16.703125 C 3.285156 -18.210938 4.09375 -19.535156 5.125 -20.671875 C 6.164062 -21.816406 7.378906 -22.710938 8.765625 -23.359375 C 10.148438 -24.003906 11.644531 -24.328125 13.25 -24.328125 C 14.675781 -24.328125 16 -24.09375 17.21875 -23.625 C 18.4375 -23.164062 19.515625 -22.503906 20.453125 -21.640625 C 21.390625 -20.785156 22.125 -19.769531 22.65625 -18.59375 L 22.65625 -23.671875 L 26.484375 -23.671875 L 26.484375 0 L 22.65625 0 L 22.65625 -5.03125 C 22.125 -3.875 21.390625 -2.863281 20.453125 -2 C 19.515625 -1.144531 18.4375 -0.484375 17.21875 -0.015625 C 16 0.441406 14.6875 0.671875 13.28125 0.671875 Z M 14.15625 -3.0625 C 15.3125 -3.0625 16.394531 -3.28125 17.40625 -3.71875 C 18.425781 -4.164062 19.316406 -4.785156 20.078125 -5.578125 C 20.835938 -6.378906 21.429688 -7.3125 21.859375 -8.375 C 22.296875 -9.445312 22.515625 -10.601562 22.515625 -11.84375 C 22.515625 -13.0625 22.296875 -14.195312 21.859375 -15.25 C 21.429688 -16.3125 20.832031 -17.238281 20.0625 -18.03125 C 19.300781 -18.832031 18.414062 -19.457031 17.40625 -19.90625 C 16.394531 -20.363281 15.320312 -20.59375 14.1875 -20.59375 C 13.019531 -20.59375 11.929688 -20.378906 10.921875 -19.953125 C 9.921875 -19.523438 9.035156 -18.914062 8.265625 -18.125 C 7.492188 -17.332031 6.890625 -16.40625 6.453125 -15.34375 C 6.015625 -14.289062 5.796875 -13.125 5.796875 -11.84375 C 5.796875 -10.519531 6.015625 -9.320312 6.453125 -8.25 C 6.898438 -7.175781 7.503906 -6.25 8.265625 -5.46875 C 9.035156 -4.695312 9.925781 -4.101562 10.9375 -3.6875 C 11.957031 -3.269531 13.03125 -3.0625 14.15625 -3.0625 Z M 14.15625 -3.0625 "/></g></g></g><g fill="#ffffff" fill-opacity="1"><g transform="translate(82.126567, 32.855202)"><g><path d="M 7.828125 0 L 3.828125 0 L 3.828125 -23.671875 L 7.65625 -23.671875 L 7.65625 -19.09375 C 8.101562 -20.113281 8.753906 -21.019531 9.609375 -21.8125 C 10.472656 -22.601562 11.484375 -23.222656 12.640625 -23.671875 C 13.804688 -24.117188 15.054688 -24.34375 16.390625 -24.34375 C 19.523438 -24.34375 21.90625 -23.367188 23.53125 -21.421875 C 25.15625 -19.484375 25.96875 -16.617188 25.96875 -12.828125 L 25.96875 0 L 21.984375 0 L 21.984375 -12.765625 C 21.984375 -15.484375 21.394531 -17.46875 20.21875 -18.71875 C 19.039062 -19.976562 17.421875 -20.609375 15.359375 -20.609375 C 14.367188 -20.609375 13.421875 -20.421875 12.515625 -20.046875 C 11.609375 -19.679688 10.800781 -19.140625 10.09375 -18.421875 C 9.394531 -17.710938 8.84375 -16.851562 8.4375 -15.84375 C 8.03125 -14.84375 7.828125 -13.707031 7.828125 -12.4375 Z M 7.828125 0 "/></g></g></g></g></g></svg>