<svg xmlns="http://www.w3.org/2000/svg" xmlns:xlink="http://www.w3.org/1999/xlink" width="40" zoomAndPan="magnify" viewBox="0 0 30 30.000001" height="40" preserveAspectRatio="xMidYMid meet" version="1.0"><defs><clipPath id="3274b8eee5"><path d="M 0.484375 0 L 29.515625 0 L 29.515625 29.03125 L 0.484375 29.03125 Z M 0.484375 0 " clip-rule="nonzero"/></clipPath><clipPath id="3bbf2e768c"><path d="M 11 6 L 27 6 L 27 28 L 11 28 Z M 11 6 " clip-rule="nonzero"/></clipPath><clipPath id="6a50fad085"><path d="M 21.390625 4.898438 L 28.109375 8.855469 L 16.550781 28.488281 L 9.832031 24.53125 Z M 21.390625 4.898438 " clip-rule="nonzero"/></clipPath><clipPath id="d2d8e1fd56"><path d="M 24.75 6.875 C 25.640625 7.402344 26.285156 8.257812 26.546875 9.257812 C 26.804688 10.261719 26.65625 11.324219 26.132812 12.214844 L 18.535156 25.117188 C 18.011719 26.007812 17.152344 26.65625 16.152344 26.914062 C 15.152344 27.175781 14.089844 27.023438 13.199219 26.5 C 12.308594 25.976562 11.660156 25.121094 11.402344 24.117188 C 11.140625 23.117188 11.292969 22.054688 11.816406 21.164062 L 19.414062 8.257812 C 19.9375 7.367188 20.792969 6.722656 21.792969 6.460938 C 22.796875 6.203125 23.859375 6.351562 24.75 6.875 Z M 24.75 6.875 " clip-rule="nonzero"/></clipPath><clipPath id="2a082ea972"><path d="M 0 0.0390625 L 15.960938 0.0390625 L 15.960938 21.175781 L 0 21.175781 Z M 0 0.0390625 " clip-rule="nonzero"/></clipPath><clipPath id="47f80877fc"><path d="M 10.390625 -1.101562 L 17.109375 2.855469 L 5.550781 22.488281 L -1.167969 18.53125 Z M 10.390625 -1.101562 " clip-rule="nonzero"/></clipPath><clipPath id="11fe9f4bf6"><path d="M 13.75 0.875 C 14.640625 1.402344 15.285156 2.257812 15.546875 3.257812 C 15.804688 4.261719 15.65625 5.324219 15.132812 6.214844 L 7.535156 19.117188 C 7.011719 20.007812 6.152344 20.65625 5.152344 20.914062 C 4.152344 21.175781 3.089844 21.023438 2.199219 20.5 C 1.308594 19.976562 0.660156 19.121094 0.402344 18.117188 C 0.140625 17.117188 0.292969 16.054688 0.816406 15.164062 L 8.414062 2.257812 C 8.9375 1.367188 9.792969 0.722656 10.792969 0.460938 C 11.796875 0.203125 12.859375 0.351562 13.75 0.875 Z M 13.75 0.875 " clip-rule="nonzero"/></clipPath><clipPath id="06b741eeb3"><rect x="0" width="16" y="0" height="22"/></clipPath><clipPath id="e8acf47c85"><path d="M 3.386719 6.316406 L 11.417969 6.316406 L 11.417969 14.351562 L 3.386719 14.351562 Z M 3.386719 6.316406 " clip-rule="nonzero"/></clipPath><clipPath id="7ab24d3792"><path d="M 7.402344 6.316406 C 5.183594 6.316406 3.386719 8.117188 3.386719 10.335938 C 3.386719 12.550781 5.183594 14.351562 7.402344 14.351562 C 9.621094 14.351562 11.417969 12.550781 11.417969 10.335938 C 11.417969 8.117188 9.621094 6.316406 7.402344 6.316406 Z M 7.402344 6.316406 " clip-rule="nonzero"/></clipPath><clipPath id="582fdd1d4b"><path d="M 0.386719 0.316406 L 8.417969 0.316406 L 8.417969 8.351562 L 0.386719 8.351562 Z M 0.386719 0.316406 " clip-rule="nonzero"/></clipPath><clipPath id="062cd7f9ff"><path d="M 4.402344 0.316406 C 2.183594 0.316406 0.386719 2.117188 0.386719 4.335938 C 0.386719 6.550781 2.183594 8.351562 4.402344 8.351562 C 6.621094 8.351562 8.417969 6.550781 8.417969 4.335938 C 8.417969 2.117188 6.621094 0.316406 4.402344 0.316406 Z M 4.402344 0.316406 " clip-rule="nonzero"/></clipPath><clipPath id="2fb3363154"><rect x="0" width="9" y="0" height="9"/></clipPath></defs><g clip-path="url(#84cc16eee5)"><path fill="#ffffff" d="M 0.484375 0 L 29.515625 0 L 29.515625 29.03125 L 0.484375 29.03125 Z M 0.484375 0 " fill-opacity="1" fill-rule="nonzero"/><path fill="#ffffff" d="M 0.484375 0 L 29.515625 0 L 29.515625 29.03125 L 0.484375 29.03125 Z M 0.484375 0 " fill-opacity="1" fill-rule="nonzero"/></g><g clip-path="url(#3bbf2e768c)"><g clip-path="url(#a3e635d085)"><g clip-path="url(#bef264fd56)"><g transform="matrix(1, 0, 0, 1, 11, 6)"><g clip-path="url(#06b741eeb3)"><g clip-path="url(#1a2e05a972)"><g clip-path="url(#47f80877fc)"><g clip-path="url(#11fe9f4bf6)"><path fill="#84cc16" d="M 10.390625 -1.101562 L 17.109375 2.855469 L 5.550781 22.488281 L -1.167969 18.53125 Z M 10.390625 -1.101562 " fill-opacity="1" fill-rule="nonzero"/></g></g></g></g></g></g></g></g><g clip-path="url(#bef2647c85)"><g clip-path="url(#7ab24d3792)"><g transform="matrix(1, 0, 0, 1, 3, 6)"><g clip-path="url(#2fb3363154)"><g clip-path="url(#4d7c0f1d4b)"><g clip-path="url(#65a30df9ff)"><path fill="#84cc16" d="M 0.386719 0.316406 L 8.417969 0.316406 L 8.417969 8.351562 L 0.386719 8.351562 Z M 0.386719 0.316406 " fill-opacity="1" fill-rule="nonzero"/></g></g></g></g></g></g></svg>