<svg xmlns="http://www.w3.org/2000/svg" xmlns:xlink="http://www.w3.org/1999/xlink" width="400" zoomAndPan="magnify" viewBox="0 0 300 299.999988" height="400" preserveAspectRatio="xMidYMid meet" version="1.0"><defs><clipPath id="ad440f968d"><path d="M 111 65 L 271 65 L 271 280 L 111 280 Z M 111 65 " clip-rule="nonzero"/></clipPath><clipPath id="3bb44d8438"><path d="M 216.058594 50.617188 L 285.488281 91.484375 L 166.074219 294.355469 L 96.640625 253.484375 Z M 216.058594 50.617188 " clip-rule="nonzero"/></clipPath><clipPath id="8e26fe69b8"><path d="M 250.773438 71.050781 C 259.980469 76.46875 266.660156 85.324219 269.335938 95.667969 C 272.015625 106.011719 270.476562 116.992188 265.054688 126.203125 L 186.558594 259.550781 C 181.140625 268.757812 172.285156 275.4375 161.941406 278.113281 C 151.601562 280.792969 140.617188 279.253906 131.410156 273.832031 C 122.203125 268.414062 115.523438 259.558594 112.847656 249.214844 C 110.167969 238.871094 111.707031 227.890625 117.128906 218.683594 L 195.625 85.332031 C 201.042969 76.125 209.898438 69.445312 220.242188 66.769531 C 230.582031 64.089844 241.566406 65.632812 250.773438 71.050781 Z M 250.773438 71.050781 " clip-rule="nonzero"/></clipPath><clipPath id="9d934d7d28"><path d="M 0 0 L 160 0 L 160 215 L 0 215 Z M 0 0 " clip-rule="nonzero"/></clipPath><clipPath id="1e846f4560"><path d="M 105.058594 -14.382812 L 174.488281 26.484375 L 55.074219 229.355469 L -14.359375 188.484375 Z M 105.058594 -14.382812 " clip-rule="nonzero"/></clipPath><clipPath id="11857df9cb"><path d="M 139.773438 6.050781 C 148.980469 11.46875 155.660156 20.324219 158.335938 30.667969 C 161.015625 41.011719 159.476562 51.992188 154.054688 61.203125 L 75.558594 194.550781 C 70.140625 203.757812 61.285156 210.4375 50.941406 213.113281 C 40.601562 215.792969 29.617188 214.253906 20.410156 208.832031 C 11.203125 203.414062 4.523438 194.558594 1.847656 184.214844 C -0.832031 173.871094 0.707031 162.890625 6.128906 153.683594 L 84.625 20.332031 C 90.042969 11.125 98.898438 4.445312 109.242188 1.769531 C 119.582031 -0.910156 130.566406 0.632812 139.773438 6.050781 Z M 139.773438 6.050781 " clip-rule="nonzero"/></clipPath><clipPath id="4db488ea70"><rect x="0" width="160" y="0" height="215"/></clipPath><clipPath id="2dfcf6c6ee"><path d="M 30 65.285156 L 113.003906 65.285156 L 113.003906 148.289062 L 30 148.289062 Z M 30 65.285156 " clip-rule="nonzero"/></clipPath><clipPath id="ba4a745b28"><path d="M 71.503906 65.285156 C 48.582031 65.285156 30 83.867188 30 106.789062 C 30 129.707031 48.582031 148.289062 71.503906 148.289062 C 94.421875 148.289062 113.003906 129.707031 113.003906 106.789062 C 113.003906 83.867188 94.421875 65.285156 71.503906 65.285156 Z M 71.503906 65.285156 " clip-rule="nonzero"/></clipPath><clipPath id="8ba10839b1"><path d="M 0 0.285156 L 83.003906 0.285156 L 83.003906 83.289062 L 0 83.289062 Z M 0 0.285156 " clip-rule="nonzero"/></clipPath><clipPath id="f723622de7"><path d="M 41.503906 0.285156 C 18.582031 0.285156 0 18.867188 0 41.789062 C 0 64.707031 18.582031 83.289062 41.503906 83.289062 C 64.421875 83.289062 83.003906 64.707031 83.003906 41.789062 C 83.003906 18.867188 64.421875 0.285156 41.503906 0.285156 Z M 41.503906 0.285156 " clip-rule="nonzero"/></clipPath><clipPath id="458c30ac68"><rect x="0" width="84" y="0" height="84"/></clipPath></defs><rect x="-30" width="360" fill="#ffffff" y="-29.999999" height="359.999986" fill-opacity="1"/><rect x="-30" width="360" fill="#f4f4f4" y="-29.999999" height="359.999986" fill-opacity="1"/><g clip-path="url(#ad440f968d)"><g clip-path="url(#3bb44d8438)"><g clip-path="url(#8e26fe69b8)"><g transform="matrix(1, 0, 0, 1, 111, 65)"><g clip-path="url(#4db488ea70)"><g clip-path="url(#9d934d7d28)"><g clip-path="url(#1e846f4560)"><g clip-path="url(#11857df9cb)"><path fill="#1b17ff" d="M 105.058594 -14.382812 L 174.488281 26.484375 L 55.074219 229.355469 L -14.359375 188.484375 Z M 105.058594 -14.382812 " fill-opacity="1" fill-rule="nonzero"/></g></g></g></g></g></g></g></g><g clip-path="url(#2dfcf6c6ee)"><g clip-path="url(#ba4a745b28)"><g transform="matrix(1, 0, 0, 1, 30, 65)"><g clip-path="url(#458c30ac68)"><g clip-path="url(#8ba10839b1)"><g clip-path="url(#f723622de7)"><path fill="#1b17ff" d="M 0 0.285156 L 83.003906 0.285156 L 83.003906 83.289062 L 0 83.289062 Z M 0 0.285156 " fill-opacity="1" fill-rule="nonzero"/></g></g></g></g></g></g></svg>